<svg width="22" height="22" viewBox="0 0 22 22" fill="none" xmlns="http://www.w3.org/2000/svg">
  <path d="M1.66797 5.39935C1.66797 3.33748 3.33944 1.66602 5.4013 1.66602H16.6013C18.6631 1.66602 20.3346 3.33748 20.3346 5.39935V16.5993C20.3346 18.6612 18.6631 20.3327 16.6013 20.3327H5.4013C3.33944 20.3327 1.66797 18.6612 1.66797 16.5993V5.39935Z" stroke="#282828" stroke-width="1.5" stroke-linecap="round" stroke-linejoin="round"/>
  <g clip-path="url(#clip0_1325_37972)">
    <path d="M9.27638 16V10.8385H8V8.98009H9.27638V7.39277C9.27638 6.14545 10.0303 5 11.7676 5C12.471 5 12.9912 5.0721 12.9912 5.0721L12.9502 6.80753C12.9502 6.80753 12.4197 6.80201 11.8409 6.80201C11.2144 6.80201 11.114 7.11072 11.114 7.62312V8.98009H13L12.9179 10.8385H11.114V16H9.27638Z" fill="#282828"/>
  </g>
  <defs>
    <clipPath id="clip0_1325_37972">
      <rect width="7" height="15.1667" fill="white" transform="translate(6.33398 5.16602)"/>
    </clipPath>
  </defs>
</svg>
