<svg width="21" height="22" viewBox="0 0 21 22" fill="none" xmlns="http://www.w3.org/2000/svg">
  <path d="M1.33398 5.39935C1.33398 3.33748 3.00545 1.66602 5.06732 1.66602H16.2673C18.3291 1.66602 20.0006 3.33748 20.0006 5.39935V16.5993C20.0006 18.6612 18.3291 20.3327 16.2673 20.3327H5.06732C3.00545 20.3327 1.33398 18.6612 1.33398 16.5993V5.39935Z" stroke="#282828" stroke-width="1.5" stroke-linecap="round" stroke-linejoin="round"/>
  <path d="M6.1925 15.5499H8.1175V8.42737H6.1925V15.5499ZM7.155 5.2832C6.51333 5.2832 6 5.79654 6 6.4382C6 7.07987 6.51333 7.5932 7.155 7.5932C7.79667 7.5932 8.31 7.07987 8.31 6.4382C8.31 5.79654 7.79667 5.2832 7.155 5.2832ZM11.39 9.5182V8.42737H9.465V15.5499H11.39V11.8924C11.39 9.83904 14.0208 9.7107 14.0208 11.8924V15.5499H15.9458V11.1865C15.9458 7.72154 12.2883 7.84987 11.39 9.5182Z" fill="#282828"/>
</svg>
