<svg width="40" height="40" viewBox="0 0 40 40" fill="none" xmlns="http://www.w3.org/2000/svg">
  <rect width="40" height="40" rx="20" fill="#646464"/>
  <path d="M11.5109 10L15.15 10.1317C15.9165 10.1594 16.5968 10.6435 16.8905 11.3702L17.9666 14.0321C18.217 14.6516 18.1496 15.3584 17.7869 15.9163L16.4083 18.0375C17.2245 19.2096 19.4447 21.9558 21.7955 23.5633L23.5484 22.4845C23.9939 22.2103 24.5273 22.1289 25.0314 22.2581L28.5161 23.1517C29.4429 23.3894 30.0674 24.2782 29.9942 25.2552L29.7705 28.2385C29.6919 29.2854 28.8351 30.1069 27.818 29.9887C14.3924 28.4276 6.51944 9.99997 11.5109 10Z" stroke="#F5F5F5" stroke-width="1.5" stroke-linecap="round" stroke-linejoin="round"/>
</svg>
