<svg width="22" height="22" viewBox="0 0 22 22" fill="none" xmlns="http://www.w3.org/2000/svg">
    <path d="M21.0016 9.74946C20.6959 7.54517 19.6754 5.50273 18.0972 3.93678C16.519 2.37083 14.4708 1.36823 12.268 1.08344C10.0652 0.798638 7.83008 1.24744 5.9069 2.3607C3.98372 3.47396 2.47918 5.18993 1.62505 7.24427M1 2.23388V7.24427H6.00041" stroke="#F5F5F5" stroke-width="1.5" stroke-linecap="round" stroke-linejoin="round"/>
    <path d="M1 12.251C1.30572 14.4553 2.32627 16.4977 3.90444 18.0637C5.4826 19.6296 7.53084 20.6322 9.73362 20.917C11.9364 21.2018 14.1715 20.753 16.0947 19.6397C18.0179 18.5265 19.5224 16.8105 20.3766 14.7562M21.0016 19.7666V14.7562H16.0012" stroke="#F5F5F5" stroke-width="1.5" stroke-linecap="round" stroke-linejoin="round"/>
</svg>
