<svg width="24" height="17" viewBox="0 0 24 17" fill="none" xmlns="http://www.w3.org/2000/svg">
  <path d="M1.81371 3.19175C1.95166 2.23067 2.74054 1.50914 3.70901 1.44003C5.77552 1.29255 9.37279 1.06641 12.0006 1.06641C14.6285 1.06641 18.2258 1.29255 20.2923 1.44003C21.2607 1.50914 22.0496 2.23067 22.1876 3.19175C22.3996 4.66874 22.6673 6.86438 22.6673 8.53318C22.6673 10.2021 22.3996 12.3976 22.1876 13.8746C22.0496 14.8357 21.2607 15.5573 20.2922 15.6263C18.2257 15.7737 14.6285 15.9997 12.0006 15.9997C9.37282 15.9997 5.77561 15.7737 3.70909 15.6263C2.74059 15.5573 1.95165 14.8357 1.8137 13.8746C1.6017 12.3976 1.33398 10.2021 1.33398 8.53318C1.33398 6.86438 1.60171 4.66874 1.81371 3.19175Z" stroke="#282828" stroke-width="1.5" stroke-linecap="round" stroke-linejoin="round"/>
  <path d="M16.2672 8.53098L9.86719 12.226V4.83594L16.2672 8.53098Z" stroke="#282828" stroke-width="1.5" stroke-linecap="round" stroke-linejoin="round"/>
</svg>
