<svg width="206" height="177" viewBox="0 0 206 177" fill="none" xmlns="http://www.w3.org/2000/svg">
<circle cx="79.4416" cy="35.3747" r="24.4186" fill="url(#paint0_radial_944_25028)"/>
<g opacity="0.67" filter="url(#filter0_f_944_25028)">
<path d="M131.175 38.6592C147.529 53.4184 185.906 69.0688 171.147 85.4226C156.388 101.776 72.0279 148.493 36.9029 130.435C20.549 115.676 51.5546 68.1535 66.3138 51.7997C81.073 35.4459 114.821 23.9 131.175 38.6592Z" fill="url(#paint1_linear_944_25028)" fill-opacity="0.3"/>
</g>
<g filter="url(#filter1_ii_944_25028)">
<path fill-rule="evenodd" clip-rule="evenodd" d="M105.868 102.396V102.396H73.7563C57.7733 102.396 44.8166 89.4391 44.8166 73.4561C44.8166 57.4731 57.7733 44.5164 73.7563 44.5164H75.3421C81.3009 44.5164 86.8609 46.2238 91.5597 49.176C97.2815 31.5169 113.864 18.748 133.43 18.748H135.61C158.709 18.748 177.434 37.4732 177.434 60.5719C177.434 83.6706 158.709 102.396 135.61 102.396H105.868Z" fill="white"/>
</g>
<defs>
<filter id="filter0_f_944_25028" x="0.800961" y="0.402523" width="205.123" height="165.58" filterUnits="userSpaceOnUse" color-interpolation-filters="sRGB">
<feFlood flood-opacity="0" result="BackgroundImageFix"/>
<feBlend mode="normal" in="SourceGraphic" in2="BackgroundImageFix" result="shape"/>
<feGaussianBlur stdDeviation="15.7318" result="effect1_foregroundBlur_944_25028"/>
</filter>
<filter id="filter1_ii_944_25028" x="32.2309" y="8.26015" width="150.797" height="101.826" filterUnits="userSpaceOnUse" color-interpolation-filters="sRGB">
<feFlood flood-opacity="0" result="BackgroundImageFix"/>
<feBlend mode="normal" in="SourceGraphic" in2="BackgroundImageFix" result="shape"/>
<feColorMatrix in="SourceAlpha" type="matrix" values="0 0 0 0 0 0 0 0 0 0 0 0 0 0 0 0 0 0 127 0" result="hardAlpha"/>
<feOffset dx="5.59354" dy="-10.4879"/>
<feGaussianBlur stdDeviation="10.4879"/>
<feComposite in2="hardAlpha" operator="arithmetic" k2="-1" k3="1"/>
<feColorMatrix type="matrix" values="0 0 0 0 0 0 0 0 0 0 0 0 0 0 0 0 0 0 0.2 0"/>
<feBlend mode="normal" in2="shape" result="effect1_innerShadow_944_25028"/>
<feColorMatrix in="SourceAlpha" type="matrix" values="0 0 0 0 0 0 0 0 0 0 0 0 0 0 0 0 0 0 127 0" result="hardAlpha"/>
<feOffset dx="-12.5855" dy="7.69112"/>
<feGaussianBlur stdDeviation="10.4879"/>
<feComposite in2="hardAlpha" operator="arithmetic" k2="-1" k3="1"/>
<feColorMatrix type="matrix" values="0 0 0 0 1 0 0 0 0 1 0 0 0 0 1 0 0 0 1 0"/>
<feBlend mode="normal" in2="effect1_innerShadow_944_25028" result="effect2_innerShadow_944_25028"/>
</filter>
<radialGradient id="paint0_radial_944_25028" cx="0" cy="0" r="1" gradientUnits="userSpaceOnUse" gradientTransform="translate(89.1573 22.0643) rotate(132.136) scale(50.8785 50.8785)">
<stop stop-color="#FFF72C"/>
<stop offset="1" stop-color="#DF7800"/>
</radialGradient>
<linearGradient id="paint1_linear_944_25028" x1="54.2707" y1="137.667" x2="149.263" y2="31.0601" gradientUnits="userSpaceOnUse">
<stop stop-color="#254659"/>
<stop offset="1" stop-color="#023553"/>
</linearGradient>
</defs>
</svg>
