<svg xmlns="http://www.w3.org/2000/svg" width="394" height="394" viewBox="0 0 394 394">
  <g id="Group_30134" data-name="Group 30134" transform="translate(-14950 -3963)">
    <rect id="Rectangle_6294" data-name="Rectangle 6294" width="394" height="394" transform="translate(14950 3963)" fill="#dcd5f8"/>
    <g id="shirt" transform="translate(15045 4047.026)">
      <g id="Group_1" data-name="Group 1">
        <path id="Path_1" data-name="Path 1" d="M228.491,95.174,200.564,34.037c-2.759-6.04-5.888-9.262-11.955-12.313a4.467,4.467,0,0,0-.492-.211L166.5,13.746a4.426,4.426,0,0,0-1.557-3.709L154.27,1.043a4.407,4.407,0,0,0-5.211-.357,4.023,4.023,0,0,0-.371.163,48.686,48.686,0,0,1-21.7,5.066,48.679,48.679,0,0,1-21.7-5.066c-.122-.061-.245-.113-.37-.162a4.407,4.407,0,0,0-5.212.357l-10.671,9a4.428,4.428,0,0,0-1.557,3.708l-21.624,7.76a4.471,4.471,0,0,0-.492.211c-6.068,3.051-9.2,6.273-11.955,12.313L25.479,95.174a4.43,4.43,0,0,0,1.682,5.6l33.365,20.853v99.98a4.431,4.431,0,0,0,4.431,4.431h42.089a4.431,4.431,0,1,0,0-8.861H69.387V83.723a4.431,4.431,0,1,0-8.861,0v27.453L35.155,95.319l26.311-57.6c1.882-4.119,3.548-5.868,7.643-7.96L89.5,22.432l9.526,39.4a4.43,4.43,0,0,0,6.606,2.747l8.058-4.891V96.12a4.431,4.431,0,0,0,4.431,4.431h17.723a4.431,4.431,0,0,0,4.431-4.431V59.686l8.058,4.892a4.431,4.431,0,0,0,6.606-2.747l9.525-39.4,20.4,7.327c4.1,2.092,5.761,3.841,7.643,7.96l26.311,57.6-25.37,15.856V83.724a4.431,4.431,0,1,0-8.862,0V217.176h-37.66a4.431,4.431,0,1,0,0,8.861h42.092a4.431,4.431,0,0,0,4.431-4.431V121.625l33.364-20.853a4.432,4.432,0,0,0,1.681-5.6Zm-87.174-82.2L126.985,37.621,112.652,12.977a58.248,58.248,0,0,0,14.333,1.8,58.227,58.227,0,0,0,14.333-1.8Zm-44.482,2.07,4.543-3.829L120.969,44.9l-14.751,8.954Zm34.58,76.642h-8.861V54.307l4.43-2.689,4.431,2.69Zm16.337-37.833L133,44.9l19.591-33.684,4.543,3.829Z" transform="translate(-25.077)" fill="#432b8d"/>
        <path id="Path_2" data-name="Path 2" d="M249.508,490.158h0a4.449,4.449,0,1,1-.008,0Z" transform="translate(-147.6 -272.982)" fill="#432b8d"/>
      </g>
    </g>
  </g>
</svg>
