<svg width="80" height="80" viewBox="0 0 80 80" fill="none" xmlns="http://www.w3.org/2000/svg">
<path d="M43.3332 6.66669H19.9999C18.2318 6.66669 16.5361 7.36907 15.2859 8.61931C14.0356 9.86955 13.3333 11.5652 13.3333 13.3334V66.6667C13.3333 68.4348 14.0356 70.1305 15.2859 71.3807C16.5361 72.631 18.2318 73.3334 19.9999 73.3334H59.9999C61.768 73.3334 63.4637 72.631 64.714 71.3807C65.9642 70.1305 66.6666 68.4348 66.6666 66.6667V30L43.3332 6.66669Z" stroke="#2DCC70" stroke-width="2" stroke-linecap="round" stroke-linejoin="round"/>
<path d="M43.3333 6.66669V30H66.6666" stroke="#2DCC70" stroke-width="2" stroke-linecap="round" stroke-linejoin="round"/>
<path d="M28.043 50.4824L24.4199 45.1992H27.0371L29.498 48.9785L31.9785 45.1992H34.5762L30.9434 50.4824L34.7617 56H32.1641L29.498 51.957L26.8418 56H24.2441L28.043 50.4824ZM38.9512 56H36.6562V40.8047H38.9512V56ZM49.498 52.9238C49.498 53.9785 49.1139 54.7891 48.3457 55.3555C47.5775 55.9154 46.4772 56.1953 45.0449 56.1953C43.6061 56.1953 42.4505 55.9772 41.5781 55.541V53.5586C42.8477 54.1445 44.0293 54.4375 45.123 54.4375C46.5358 54.4375 47.2422 54.0111 47.2422 53.1582C47.2422 52.8848 47.1641 52.6569 47.0078 52.4746C46.8516 52.2923 46.5944 52.1035 46.2363 51.9082C45.8783 51.7129 45.3802 51.4915 44.7422 51.2441C43.4987 50.7624 42.6556 50.2806 42.2129 49.7988C41.7767 49.3171 41.5586 48.6921 41.5586 47.9238C41.5586 46.9993 41.9297 46.2832 42.6719 45.7754C43.4206 45.2611 44.4362 45.0039 45.7188 45.0039C46.9883 45.0039 48.1895 45.2611 49.3223 45.7754L48.5801 47.5039C47.4147 47.0221 46.4349 46.7812 45.6406 46.7812C44.4297 46.7812 43.8242 47.1263 43.8242 47.8164C43.8242 48.1549 43.9805 48.4414 44.293 48.6758C44.612 48.9102 45.3021 49.2324 46.3633 49.6426C47.2552 49.9876 47.903 50.3034 48.3066 50.5898C48.7103 50.8763 49.0098 51.2083 49.2051 51.5859C49.4004 51.957 49.498 52.403 49.498 52.9238Z" fill="#2DCC70"/>
</svg>
