<svg xmlns="http://www.w3.org/2000/svg" width="394" height="394" viewBox="0 0 394 394">
  <g id="Group_30133" data-name="Group 30133" transform="translate(-15442 -3963)">
    <rect id="Rectangle_6295" data-name="Rectangle 6295" width="394" height="394" transform="translate(15442 3963)" fill="#dcd5f8"/>
    <g id="user_copy" data-name="user copy" transform="translate(15526 4048)">
      <path id="Path_3" data-name="Path 3" d="M112.977,0a112.977,112.977,0,1,0,0,225.954q5.106,0,10.169-.456c3.137-.281,6.246-.712,9.332-1.25l1.186-.21A112.978,112.978,0,0,0,112.977,0ZM103.9,218.024h-.267c-2.929-.259-5.836-.651-8.718-1.153-.165-.029-.331-.048-.493-.079q-4.226-.756-8.365-1.859l-.667-.171c-2.692-.73-5.355-1.578-7.979-2.519-.272-.1-.546-.184-.818-.285q-3.859-1.418-7.587-3.15c-.309-.138-.618-.27-.927-.417-2.44-1.129-4.832-2.4-7.179-3.74-.331-.188-.666-.375-1-.561q-3.464-2.022-6.78-4.319c-.335-.234-.673-.46-1.006-.693-2.175-1.543-4.3-3.181-6.36-4.9l-.568-.5V161.934a41.474,41.474,0,0,1,41.425-41.425h52.723a41.474,41.474,0,0,1,41.425,41.425v31.755l-.5.417q-3.158,2.637-6.486,4.991c-.294.206-.592.4-.884.6q-3.36,2.333-6.885,4.4c-.294.171-.6.333-.888.5-2.381,1.355-4.8,2.635-7.273,3.788-.283.132-.568.256-.855.377q-3.762,1.735-7.648,3.174c-.257.1-.517.178-.754.268-2.637.945-5.311,1.8-8.017,2.534l-.649.162c-2.764.73-5.553,1.359-8.374,1.865-.162.029-.324.05-.485.075-2.885.5-5.8.9-8.727,1.157h-.267c-3.012.259-6.026.4-9.076.4S106.907,218.283,103.9,218.024Zm84.4-31.317V161.934a49.013,49.013,0,0,0-48.957-48.957H86.616a49.013,49.013,0,0,0-48.957,48.957V186.7a105.446,105.446,0,1,1,150.636,0Zm0,0" fill="#432b8d" stroke="#432b8d" stroke-width="2"/>
      <path id="Path_4" data-name="Path 4" d="M197.659,64a37.659,37.659,0,1,0,37.659,37.659A37.659,37.659,0,0,0,197.659,64Zm0,67.786a30.127,30.127,0,1,1,30.127-30.127,30.127,30.127,0,0,1-30.127,30.127Zm0,0" transform="translate(-84.682 -33.873)" fill="#432b8d" stroke="#432b8d" stroke-width="2"/>
    </g>
  </g>
</svg>
