<svg width="24" height="24" viewBox="0 0 24 24" fill="none" xmlns="http://www.w3.org/2000/svg">
<path d="M22.0005 6.69995C22.3187 6.39049 22.5729 6.02137 22.7485 5.61366C22.9241 5.20595 23.0177 4.76764 23.0239 4.32376C23.0301 3.87989 22.9488 3.43914 22.7846 3.02669C22.6205 2.61424 22.3767 2.23817 22.0671 1.91995C21.4256 1.30921 20.5697 0.97526 19.6841 0.990228C18.7985 1.0052 17.9543 1.36788 17.3338 1.99995L13.8538 5.43329C13.5878 5.69709 13.2284 5.84512 12.8538 5.84512C12.4792 5.84512 12.1198 5.69709 11.8538 5.43329L11.4071 4.98662L10.4805 5.94662L18.0538 13.52L19.0005 12.5733L18.5538 12.1266C18.29 11.8607 18.142 11.5012 18.142 11.1266C18.142 10.752 18.29 10.3926 18.5538 10.1266L22.0005 6.69995ZM17.6271 9.19995C17.274 9.55232 17.0249 9.99521 16.9071 10.48L13.5205 7.09329C14.0052 6.97551 14.4481 6.72639 14.8005 6.37329L18.2405 2.92662C18.6174 2.53534 19.1336 2.3088 19.6767 2.29631C20.2199 2.28383 20.746 2.48641 21.1405 2.85995C21.514 3.25445 21.7166 3.78053 21.7041 4.32368C21.6916 4.86682 21.4651 5.38304 21.0738 5.75995L17.6271 9.19995Z" fill="#F5F5F5"/>
<path d="M4.86658 21.0066C4.61639 21.2568 4.27706 21.3974 3.92324 21.3974C3.56942 21.3974 3.2301 21.2568 2.97991 21.0066C2.72972 20.7565 2.58917 20.4171 2.58917 20.0633C2.58917 19.7095 2.72972 19.3702 2.97991 19.12L12.3866 9.71332L11.4399 8.77332L2.03324 18.18C1.61779 18.5902 1.34845 19.1254 1.26656 19.7035C1.18467 20.2815 1.29475 20.8705 1.57991 21.38L0.593243 22.3666C0.527685 22.4289 0.475482 22.5039 0.43981 22.587C0.404138 22.6701 0.385742 22.7596 0.385742 22.85C0.385742 22.9404 0.404138 23.0299 0.43981 23.113C0.475482 23.1961 0.527685 23.271 0.593243 23.3333C0.655218 23.3958 0.728952 23.4454 0.810192 23.4792C0.891431 23.5131 0.978568 23.5305 1.06658 23.5305C1.15458 23.5305 1.24172 23.5131 1.32296 23.4792C1.4042 23.4454 1.47793 23.3958 1.53991 23.3333L2.49324 22.3733C2.91082 22.635 3.39376 22.7737 3.88658 22.7733C4.24355 22.7732 4.59697 22.7024 4.92649 22.5651C5.25601 22.4278 5.55511 22.2267 5.80658 21.9733L15.2132 12.54L14.2732 11.6L4.86658 21.0066Z" fill="#F5F5F5"/>
</svg>
