<svg width="24" height="24" viewBox="0 0 24 24" fill="none" xmlns="http://www.w3.org/2000/svg">
<path d="M22 12C22 13.3132 21.7413 14.6136 21.2388 15.8268C20.7362 17.0401 19.9997 18.1425 19.0711 19.0711C18.1425 19.9997 17.0401 20.7362 15.8268 21.2388C14.6136 21.7413 13.3132 22 12 22C10.6868 22 9.38642 21.7413 8.17317 21.2388C6.95991 20.7362 5.85752 19.9997 4.92893 19.0711C4.00035 18.1425 3.26375 17.0401 2.7612 15.8268C2.25866 14.6136 2 13.3132 2 12C2 9.34784 3.05357 6.8043 4.92893 4.92893C6.8043 3.05357 9.34784 2 12 2C14.6522 2 17.1957 3.05357 19.0711 4.92893C20.9464 6.8043 22 9.34784 22 12Z" fill="#EAE7F8" stroke="#664AB6" stroke-width="1.5" stroke-linecap="round" stroke-linejoin="round"/>
<path d="M11.2514 11.9997C12.5405 11.9997 13.5847 10.9555 13.5847 9.66634C13.5847 8.37717 12.5405 7.33301 11.2514 7.33301C9.96222 7.33301 8.91805 8.37717 8.91805 9.66634C8.91805 10.9555 9.96222 11.9997 11.2514 11.9997ZM11.2514 8.49967C11.8931 8.49967 12.418 9.02467 12.418 9.66634C12.418 10.308 11.8931 10.833 11.2514 10.833C10.6097 10.833 10.0847 10.308 10.0847 9.66634C10.0847 9.02467 10.6097 8.49967 11.2514 8.49967ZM14.9789 13.493C13.9989 12.9913 12.7272 12.583 11.2514 12.583C9.77555 12.583 8.50388 12.9913 7.52388 13.493C6.94055 13.7905 6.58472 14.3913 6.58472 15.0447V16.6663H15.918V15.0447C15.918 14.3913 15.5622 13.7905 14.9789 13.493ZM14.7514 15.4997H7.75138V15.0447C7.75138 14.823 7.86805 14.6247 8.05472 14.5313C8.74888 14.1755 9.86888 13.7497 11.2514 13.7497C12.6339 13.7497 13.7539 14.1755 14.448 14.5313C14.6347 14.6247 14.7514 14.823 14.7514 15.0447V15.4997Z" fill="#664AB6"/>
<path d="M17.0867 9.08398V12.584" stroke="#664AB6" stroke-width="0.875" stroke-linecap="round" stroke-linejoin="round"/>
<path d="M18.8367 10.834H15.3367" stroke="#664AB6" stroke-width="0.875" stroke-linecap="round" stroke-linejoin="round"/>
</svg>
