<svg width="16" height="16" viewBox="0 0 16 16" fill="none" xmlns="http://www.w3.org/2000/svg">
<path d="M6.85928 2.57347L1.21261 12.0001C1.09619 12.2018 1.03459 12.4303 1.03394 12.6631C1.03329 12.896 1.09361 13.1249 1.2089 13.3272C1.32419 13.5294 1.49043 13.698 1.69109 13.816C1.89174 13.9341 2.11981 13.9976 2.35261 14.0001H13.6459C13.8787 13.9976 14.1068 13.9341 14.3075 13.816C14.5081 13.698 14.6744 13.5294 14.7897 13.3272C14.905 13.1249 14.9653 12.896 14.9646 12.6631C14.964 12.4303 14.9024 12.2018 14.7859 12.0001L9.13928 2.57347C9.02043 2.37754 8.8531 2.21555 8.65341 2.10313C8.45373 1.9907 8.22844 1.93164 7.99928 1.93164C7.77012 1.93164 7.54484 1.9907 7.34515 2.10313C7.14547 2.21555 6.97813 2.37754 6.85928 2.57347V2.57347Z" stroke="#F57F17" stroke-width="1.5" stroke-linecap="round" stroke-linejoin="round"/>
<path d="M8 6V8.66667" stroke="#F57F17" stroke-width="1.5" stroke-linecap="round" stroke-linejoin="round"/>
<path d="M8 11.3334H8.00667" stroke="#F57F17" stroke-width="1.5" stroke-linecap="round" stroke-linejoin="round"/>
</svg>
