<svg width="13" height="21" viewBox="0 0 13 21" fill="none" xmlns="http://www.w3.org/2000/svg">
<path d="M11.2309 4.64851L11.2309 14.976C11.2309 16.2412 10.6934 17.4546 9.73669 18.3493C8.77993 19.2439 7.48228 19.7465 6.12922 19.7465C4.77616 19.7465 3.47852 19.2439 2.52176 18.3493C1.565 17.4546 1.0275 16.2412 1.0275 14.976L1.0275 4.64851C1.0275 3.80504 1.38583 2.99612 2.02367 2.3997C2.66151 1.80328 3.52661 1.46821 4.42865 1.46821C5.33069 1.46821 6.19578 1.80328 6.83362 2.3997C7.47146 2.99612 7.8298 3.80504 7.8298 4.64851L7.82379 14.9817C7.82379 15.4034 7.64462 15.8079 7.3257 16.1061C7.00678 16.4043 6.57423 16.5718 6.12321 16.5718C5.67219 16.5718 5.23965 16.4043 4.92073 16.1061C4.60181 15.8079 4.42264 15.4034 4.42264 14.9817L4.42865 5.44639" stroke="#6A7181" stroke-width="1.5" stroke-linecap="round" stroke-linejoin="round"/>
</svg>
