<svg width="20" height="20" viewBox="0 0 20 20" fill="none" xmlns="http://www.w3.org/2000/svg">
<g clip-path="url(#clip0_291_28774)">
<path d="M15.2093 4.00935L15.2093 14.142C15.2093 15.3834 14.7162 16.5738 13.8384 17.4516C12.9607 18.3293 11.7702 18.8225 10.5289 18.8225C9.28753 18.8225 8.09704 18.3293 7.21929 17.4516C6.34154 16.5738 5.84842 15.3834 5.84842 14.142L5.84842 4.00935C5.84842 3.1818 6.17717 2.38814 6.76233 1.80297C7.3475 1.21781 8.14116 0.889061 8.96871 0.889061C9.79626 0.889061 10.5899 1.21781 11.1751 1.80297C11.7603 2.38814 12.089 3.1818 12.089 4.00935L12.0835 14.1475C12.0835 14.5613 11.9191 14.9581 11.6265 15.2507C11.3339 15.5433 10.9371 15.7077 10.5233 15.7077C10.1096 15.7077 9.71274 15.5433 9.42015 15.2507C9.12757 14.9581 8.9632 14.5613 8.9632 14.1475L8.96871 4.79218" stroke="#6A7181" stroke-width="1.5" stroke-linecap="round" stroke-linejoin="round"/>
</g>
<defs>
<clipPath id="clip0_291_28774">
<rect width="20" height="20" fill="white"/>
</clipPath>
</defs>
</svg>
