<svg width="80" height="80" viewBox="0 0 80 80" fill="none" xmlns="http://www.w3.org/2000/svg">
<path d="M43.3332 6.66669H19.9999C18.2318 6.66669 16.5361 7.36907 15.2859 8.61931C14.0356 9.86955 13.3333 11.5652 13.3333 13.3334V66.6667C13.3333 68.4348 14.0356 70.1305 15.2859 71.3807C16.5361 72.631 18.2318 73.3334 19.9999 73.3334H59.9999C61.768 73.3334 63.4637 72.631 64.714 71.3807C65.9642 70.1305 66.6666 68.4348 66.6666 66.6667V30L43.3332 6.66669Z" stroke="#FE8014" stroke-width="2" stroke-linecap="round" stroke-linejoin="round"/>
<path d="M43.3333 6.66669V30H66.6666" stroke="#FE8014" stroke-width="2" stroke-linecap="round" stroke-linejoin="round"/>
<path d="M41.8379 56L40.4121 52.0352H34.9531L33.5566 56H31.0957L36.4375 41.6641H38.9766L44.3184 56H41.8379ZM39.7969 50.0234L38.459 46.1367C38.3613 45.8763 38.2246 45.4661 38.0488 44.9062C37.8796 44.3464 37.7624 43.9362 37.6973 43.6758C37.5215 44.4766 37.2643 45.3522 36.9258 46.3027L35.6367 50.0234H39.7969ZM48.2539 56H45.959V45.1992H48.2539V56ZM45.8223 42.3379C45.8223 41.9277 45.9329 41.612 46.1543 41.3906C46.3822 41.1693 46.7044 41.0586 47.1211 41.0586C47.5247 41.0586 47.8372 41.1693 48.0586 41.3906C48.2865 41.612 48.4004 41.9277 48.4004 42.3379C48.4004 42.7285 48.2865 43.0378 48.0586 43.2656C47.8372 43.487 47.5247 43.5977 47.1211 43.5977C46.7044 43.5977 46.3822 43.487 46.1543 43.2656C45.9329 43.0378 45.8223 42.7285 45.8223 42.3379Z" fill="#FE8014"/>
</svg>
