<svg width="80" height="80" viewBox="0 0 80 80" fill="none" xmlns="http://www.w3.org/2000/svg">
<path d="M43.3332 6.66669H19.9999C18.2318 6.66669 16.5361 7.36907 15.2859 8.61931C14.0356 9.86955 13.3333 11.5652 13.3333 13.3334V66.6667C13.3333 68.4348 14.0356 70.1305 15.2859 71.3807C16.5361 72.631 18.2318 73.3334 19.9999 73.3334H59.9999C61.768 73.3334 63.4637 72.631 64.714 71.3807C65.9642 70.1305 66.6666 68.4348 66.6666 66.6667V30L43.3332 6.66669Z" stroke="#446CB2" stroke-width="2" stroke-linecap="round" stroke-linejoin="round"/>
<path d="M43.3333 6.66669V30H66.6666" stroke="#446CB2" stroke-width="2" stroke-linecap="round" stroke-linejoin="round"/>
<path d="M27.2832 56.1953C25.9355 56.1953 24.8841 55.707 24.1289 54.7305C23.3737 53.7539 22.9961 52.3835 22.9961 50.6191C22.9961 48.8483 23.377 47.4714 24.1387 46.4883C24.9069 45.4987 25.9681 45.0039 27.3223 45.0039C28.7415 45.0039 29.8223 45.528 30.5645 46.5762H30.6816C30.571 45.8014 30.5156 45.1895 30.5156 44.7402V40.8047H32.8203V56H31.0234L30.623 54.584H30.5156C29.7799 55.6582 28.7025 56.1953 27.2832 56.1953ZM27.8984 54.3398C28.8424 54.3398 29.5293 54.0762 29.959 53.5488C30.3887 53.015 30.61 52.1523 30.623 50.9609V50.6387C30.623 49.278 30.4017 48.3112 29.959 47.7383C29.5163 47.1654 28.8229 46.8789 27.8789 46.8789C27.0716 46.8789 26.4499 47.2077 26.0137 47.8652C25.5775 48.5163 25.3594 49.4473 25.3594 50.6582C25.3594 51.8561 25.571 52.7708 25.9941 53.4023C26.4173 54.0273 27.0521 54.3398 27.8984 54.3398ZM45.6816 50.5801C45.6816 52.3444 45.2292 53.7214 44.3242 54.7109C43.4193 55.7005 42.1595 56.1953 40.5449 56.1953C39.5358 56.1953 38.6439 55.9674 37.8691 55.5117C37.0944 55.056 36.4987 54.4017 36.082 53.5488C35.6654 52.696 35.457 51.7064 35.457 50.5801C35.457 48.8288 35.9062 47.4616 36.8047 46.4785C37.7031 45.4954 38.9694 45.0039 40.6035 45.0039C42.166 45.0039 43.403 45.5085 44.3145 46.5176C45.2259 47.5202 45.6816 48.8743 45.6816 50.5801ZM37.8203 50.5801C37.8203 53.0736 38.7415 54.3203 40.584 54.3203C42.4069 54.3203 43.3184 53.0736 43.3184 50.5801C43.3184 48.1126 42.4004 46.8789 40.5645 46.8789C39.6009 46.8789 38.901 47.1979 38.4648 47.8359C38.0352 48.474 37.8203 49.3887 37.8203 50.5801ZM52.6836 56.1953C51.0495 56.1953 49.806 55.7201 48.9531 54.7695C48.1068 53.8125 47.6836 52.4421 47.6836 50.6582C47.6836 48.8418 48.1263 47.4453 49.0117 46.4688C49.9036 45.4922 51.1895 45.0039 52.8691 45.0039C54.0085 45.0039 55.0339 45.2155 55.9453 45.6387L55.252 47.4844C54.2819 47.1068 53.4811 46.918 52.8496 46.918C50.9811 46.918 50.0469 48.1582 50.0469 50.6387C50.0469 51.8496 50.278 52.7611 50.7402 53.373C51.209 53.9785 51.8926 54.2812 52.791 54.2812C53.8132 54.2812 54.7799 54.0273 55.6914 53.5195V55.5215C55.2812 55.7624 54.8418 55.9349 54.373 56.0391C53.9108 56.1432 53.3477 56.1953 52.6836 56.1953Z" fill="#446CB2"/>
</svg>
