<svg width="21" height="20" viewBox="0 0 21 20" fill="none" xmlns="http://www.w3.org/2000/svg">
<path d="M12.1667 6.66683C13.0871 6.66683 13.8333 5.92064 13.8333 5.00016C13.8333 4.07969 13.0871 3.3335 12.1667 3.3335C11.2462 3.3335 10.5 4.07969 10.5 5.00016C10.5 5.92064 11.2462 6.66683 12.1667 6.66683Z" stroke="#21242B" stroke-width="1.25" stroke-linecap="round" stroke-linejoin="round"/>
<path d="M3.83203 5H10.4987" stroke="#21242B" stroke-width="1.25" stroke-linecap="round" stroke-linejoin="round"/>
<path d="M13.832 5H17.1654" stroke="#21242B" stroke-width="1.25" stroke-linecap="round" stroke-linejoin="round"/>
<path d="M7.16667 11.6668C8.08714 11.6668 8.83333 10.9206 8.83333 10.0002C8.83333 9.07969 8.08714 8.3335 7.16667 8.3335C6.24619 8.3335 5.5 9.07969 5.5 10.0002C5.5 10.9206 6.24619 11.6668 7.16667 11.6668Z" stroke="#21242B" stroke-width="1.25" stroke-linecap="round" stroke-linejoin="round"/>
<path d="M3.83203 10H5.4987" stroke="#21242B" stroke-width="1.25" stroke-linecap="round" stroke-linejoin="round"/>
<path d="M8.83203 10H17.1654" stroke="#21242B" stroke-width="1.25" stroke-linecap="round" stroke-linejoin="round"/>
<path d="M14.6667 16.6668C15.5871 16.6668 16.3333 15.9206 16.3333 15.0002C16.3333 14.0797 15.5871 13.3335 14.6667 13.3335C13.7462 13.3335 13 14.0797 13 15.0002C13 15.9206 13.7462 16.6668 14.6667 16.6668Z" stroke="#21242B" stroke-width="1.25" stroke-linecap="round" stroke-linejoin="round"/>
<path d="M3.83203 15H12.9987" stroke="#21242B" stroke-width="1.25" stroke-linecap="round" stroke-linejoin="round"/>
<path d="M16.332 15H17.1654" stroke="#21242B" stroke-width="1.25" stroke-linecap="round" stroke-linejoin="round"/>
</svg>
