<svg width="36" height="36" viewBox="0 0 36 36" fill="none" xmlns="http://www.w3.org/2000/svg">
<path d="M26.8233 11.3333C26.4849 10.3921 25.8669 9.57161 25.0489 8.97756C24.2309 8.38351 23.2503 8.04305 22.2333 8H15.4333C14.0806 8 12.7834 8.52678 11.827 9.46447C10.8706 10.4021 10.3333 11.6739 10.3333 13C10.3333 14.3261 10.8706 15.5979 11.827 16.5355C12.7834 17.4732 14.0806 18 15.4333 18H22.2333C23.5859 18 24.8831 18.5268 25.8395 19.4645C26.7959 20.4021 27.3333 21.6739 27.3333 23C27.3333 24.3261 26.7959 25.5979 25.8395 26.5355C24.8831 27.4732 23.5859 28 22.2333 28H15.4333C14.4162 27.9569 13.4356 27.6165 12.6176 27.0224C11.7996 26.4284 11.1816 25.6079 10.8433 24.6667" stroke="#EE761F" stroke-width="2" stroke-linecap="round" stroke-linejoin="round"/>
<path d="M19.3333 28V33M19.3333 3V8V3Z" stroke="#EE761F" stroke-width="2" stroke-linecap="round" stroke-linejoin="round"/>
</svg>
