<svg width="24" height="24" viewBox="0 0 24 24" fill="none" xmlns="http://www.w3.org/2000/svg">
<path d="M11 19C15.4183 19 19 15.4183 19 11C19 6.58172 15.4183 3 11 3C6.58172 3 3 6.58172 3 11C3 15.4183 6.58172 19 11 19Z" stroke="#21242B" stroke-width="1.5" stroke-linecap="round" stroke-linejoin="round"/>
<path d="M20.9999 20.9999L16.6499 16.6499" stroke="#21242B" stroke-width="1.5" stroke-linecap="round" stroke-linejoin="round"/>
<path d="M13.1776 8.81279C13.0367 8.58373 12.832 8.39488 12.5854 8.26648C12.3388 8.13807 12.0596 8.07494 11.7776 8.08383H10.2221C9.8095 8.08383 9.41384 8.23744 9.12212 8.51085C8.83039 8.78426 8.6665 9.15509 8.6665 9.54175C8.6665 9.92842 8.83039 10.2992 9.12212 10.5727C9.41384 10.8461 9.8095 10.9997 10.2221 10.9997H11.7776C12.1902 10.9997 12.5858 11.1533 12.8776 11.4267C13.1693 11.7001 13.3332 12.0709 13.3332 12.4576C13.3332 12.8443 13.1693 13.2151 12.8776 13.4885C12.5858 13.7619 12.1902 13.9155 11.7776 13.9155H10.2221C9.94011 13.9244 9.66088 13.8613 9.41427 13.7329C9.16766 13.6045 8.96296 13.4156 8.82206 13.1866" stroke="#21242B" stroke-linecap="round" stroke-linejoin="round"/>
<path d="M11 14.1113V15.6668M11 6.3335V7.88905V6.3335Z" stroke="#21242B" stroke-linecap="round" stroke-linejoin="round"/>
</svg>
