<svg width="36" height="36" viewBox="0 0 36 36" fill="none" xmlns="http://www.w3.org/2000/svg">
<path d="M18 31.5C25.4558 31.5 31.5 25.4558 31.5 18C31.5 10.5442 25.4558 4.5 18 4.5C10.5442 4.5 4.5 10.5442 4.5 18C4.5 25.4558 10.5442 31.5 18 31.5Z" stroke="#EE761F" stroke-width="2" stroke-linecap="round" stroke-linejoin="round"/>
<path d="M22.2 13.5002C21.9283 13.0289 21.5335 12.6403 21.0579 12.3761C20.5823 12.1118 20.0438 11.9819 19.5 12.0002H16.5C15.7044 12.0002 14.9413 12.3163 14.3787 12.8789C13.8161 13.4415 13.5 14.2046 13.5 15.0002C13.5 15.7959 13.8161 16.5589 14.3787 17.1216C14.9413 17.6842 15.7044 18.0002 16.5 18.0002H19.5C20.2956 18.0002 21.0587 18.3163 21.6213 18.8789C22.1839 19.4415 22.5 20.2046 22.5 21.0002C22.5 21.7959 22.1839 22.5589 21.6213 23.1216C21.0587 23.6842 20.2956 24.0002 19.5 24.0002H16.5C15.9562 24.0185 15.4177 23.8886 14.9421 23.6244C14.4665 23.3602 14.0717 22.9716 13.8 22.5002" stroke="#EE761F" stroke-width="2" stroke-linecap="round" stroke-linejoin="round"/>
<path d="M18 24V27M18 9V12V9Z" stroke="#EE761F" stroke-width="2" stroke-linecap="round" stroke-linejoin="round"/>
</svg>
