<svg width="20" height="20" viewBox="0 0 20 20" fill="none" xmlns="http://www.w3.org/2000/svg">
<path d="M2.04424 9.11606C2.01625 9.39078 2.21627 9.63617 2.491 9.66415C2.76572 9.69213 3.01111 9.49211 3.03909 9.21739L2.04424 9.11606ZM3.42798 12.3285C3.33323 12.0691 3.04616 11.9357 2.78678 12.0304C2.5274 12.1252 2.39394 12.4122 2.48868 12.6716L3.42798 12.3285ZM1.59153 14.9098C1.54173 15.1814 1.72155 15.442 1.99316 15.4918C2.26478 15.5416 2.52533 15.3618 2.57513 15.0902L1.59153 14.9098ZM2.54166 12.5001L2.54165 12.0001C2.30029 12.0001 2.09339 12.1725 2.04986 12.4099L2.54166 12.5001ZM5.41667 13C5.69281 13 5.91667 12.7761 5.91666 12.5C5.91666 12.2238 5.69279 12 5.41665 12L5.41667 13ZM3.03909 9.21739C3.21338 7.50633 4.01152 5.91931 5.28122 4.75914L4.60667 4.02091C3.15558 5.34682 2.24343 7.16055 2.04424 9.11606L3.03909 9.21739ZM5.28122 4.75914C6.55091 3.59897 8.2033 2.94686 9.92311 2.92721L9.91169 1.92728C7.94619 1.94973 6.05775 2.69501 4.60667 4.02091L5.28122 4.75914ZM9.92311 2.92721C11.6429 2.90757 13.3098 3.52178 14.6056 4.65264L15.2631 3.8992C13.7822 2.60678 11.8772 1.90483 9.91169 1.92728L9.92311 2.92721ZM14.6056 4.65264C15.9015 5.78351 16.7357 7.35188 16.949 9.05852L17.9413 8.93448C17.6975 6.98404 16.7441 5.19161 15.2631 3.8992L14.6056 4.65264ZM16.949 9.05852C17.1623 10.7652 16.7399 12.4906 15.7623 13.9057L16.585 14.4741C17.7023 12.8569 18.1851 10.8849 17.9413 8.93448L16.949 9.05852ZM15.7623 13.9057C14.7846 15.3207 13.3203 16.3263 11.6485 16.7306L11.8836 17.7026C13.7941 17.2405 15.4677 16.0913 16.585 14.4741L15.7623 13.9057ZM11.6485 16.7306C9.9768 17.1349 8.21474 16.9096 6.69853 16.0977L6.22646 16.9792C7.95927 17.9071 9.97305 18.1646 11.8836 17.7026L11.6485 16.7306ZM6.69853 16.0977C5.18232 15.2857 4.0181 13.944 3.42798 12.3285L2.48868 12.6716C3.1631 14.5179 4.49364 16.0513 6.22646 16.9792L6.69853 16.0977ZM2.57513 15.0902L3.03347 12.5902L2.04986 12.4099L1.59153 14.9098L2.57513 15.0902ZM2.54167 13.0001L5.41667 13L5.41665 12L2.54165 12.0001L2.54167 13.0001Z" fill="#6A7181"/>
<g clip-path="url(#clip0_12457_150543)">
<path d="M11.368 7.09957C11.4437 7.01154 11.536 6.93928 11.6395 6.88691C11.7431 6.83453 11.856 6.80308 11.9718 6.79433C12.0875 6.78559 12.2038 6.79972 12.3141 6.83594C12.4244 6.87215 12.5265 6.92973 12.6145 7.00539C12.7025 7.08105 12.7748 7.17331 12.8271 7.27689C12.8795 7.38048 12.911 7.49337 12.9197 7.60911C12.9285 7.72485 12.9143 7.84119 12.8781 7.95146C12.8419 8.06174 12.7843 8.16381 12.7087 8.25184L8.81974 12.7764L7.1412 13.3734L7.47912 11.6242L11.368 7.09957Z" stroke="#6A7181" stroke-linecap="round" stroke-linejoin="round"/>
</g>
<defs>
<clipPath id="clip0_12457_150543">
<rect width="7.5" height="7.5" fill="white" transform="translate(6 6.56494) rotate(-4.32081)"/>
</clipPath>
</defs>
</svg>
