<svg width="36" height="36" viewBox="0 0 36 36" fill="none" xmlns="http://www.w3.org/2000/svg">
<path d="M3 29.9998C3.34076 30.4746 3.79196 30.8592 4.31464 31.1205C4.83731 31.3819 5.41576 31.5121 6 31.4998C6.58424 31.5121 7.16269 31.3819 7.68536 31.1205C8.20804 30.8592 8.65924 30.4746 9 29.9998C9.34076 29.5251 9.79196 29.1404 10.3146 28.8791C10.8373 28.6177 11.4158 28.4876 12 28.4998C12.5842 28.4876 13.1627 28.6177 13.6854 28.8791C14.208 29.1404 14.6592 29.5251 15 29.9998C15.3408 30.4746 15.792 30.8592 16.3146 31.1205C16.8373 31.3819 17.4158 31.5121 18 31.4998C18.5842 31.5121 19.1627 31.3819 19.6854 31.1205C20.208 30.8592 20.6592 30.4746 21 29.9998C21.3408 29.5251 21.792 29.1404 22.3146 28.8791C22.8373 28.6177 23.4158 28.4876 24 28.4998C24.5842 28.4876 25.1627 28.6177 25.6854 28.8791C26.208 29.1404 26.6592 29.5251 27 29.9998C27.3408 30.4746 27.792 30.8592 28.3146 31.1205C28.8373 31.3819 29.4158 31.5121 30 31.4998C30.5842 31.5121 31.1627 31.3819 31.6854 31.1205C32.208 30.8592 32.6592 30.4746 33 29.9998" stroke="#EE761F" stroke-width="2" stroke-linecap="round" stroke-linejoin="round"/>
<path d="M6 27L4.5 19.5H31.5L28.5 25.5" stroke="#EE761F" stroke-width="2" stroke-linecap="round" stroke-linejoin="round"/>
<path d="M7.5 19.5V10.5H19.5L25.5 19.5" stroke="#EE761F" stroke-width="2" stroke-linecap="round" stroke-linejoin="round"/>
<path d="M10.5 10.5V4.5H9" stroke="#EE761F" stroke-width="2" stroke-linecap="round" stroke-linejoin="round"/>
</svg>
