<svg width="36" height="36" viewBox="0 0 36 36" fill="none" xmlns="http://www.w3.org/2000/svg">
<path d="M18 15C18 12.6131 17.0518 10.3239 15.364 8.63604C13.6761 6.94821 11.3869 6 9 6H4.5V9C4.5 11.3869 5.44821 13.6761 7.13604 15.364C8.82387 17.0518 11.1131 18 13.5 18H18" stroke="#EE761F" stroke-width="2" stroke-linecap="round" stroke-linejoin="round"/>
<path d="M18 21C18 18.6131 18.9482 16.3239 20.636 14.636C22.3239 12.9482 24.6131 12 27 12H31.5V13.5C31.5 15.8869 30.5518 18.1761 28.864 19.864C27.1761 21.5518 24.8869 22.5 22.5 22.5H18" stroke="#EE761F" stroke-width="2" stroke-linecap="round" stroke-linejoin="round"/>
<path d="M18 30V15" stroke="#EE761F" stroke-width="2" stroke-linecap="round" stroke-linejoin="round"/>
</svg>
