<svg width="20" height="20" viewBox="0 0 20 20" fill="none" xmlns="http://www.w3.org/2000/svg">
<path d="M5.83333 18.3334H3.33333C2.8913 18.3334 2.46738 18.1578 2.15482 17.8453C1.84226 17.5327 1.66666 17.1088 1.66666 16.6667V10.8334C1.66666 10.3914 1.84226 9.96746 2.15482 9.6549C2.46738 9.34234 2.8913 9.16675 3.33333 9.16675H5.83333M11.6667 7.50008V4.16675C11.6667 3.50371 11.4033 2.86782 10.9344 2.39898C10.4656 1.93014 9.82971 1.66675 9.16666 1.66675L5.83333 9.16675V18.3334H15.2333C15.6353 18.338 16.0253 18.1971 16.3316 17.9368C16.6379 17.6764 16.8397 17.3142 16.9 16.9167L18.05 9.41675C18.0863 9.17788 18.0701 8.93398 18.0028 8.70196C17.9354 8.46993 17.8184 8.25533 17.6599 8.07301C17.5013 7.89069 17.3051 7.74502 17.0846 7.6461C16.8642 7.54717 16.6249 7.49735 16.3833 7.50008H11.6667Z" stroke="#6A7181" stroke-linecap="round" stroke-linejoin="round"/>
</svg>
