<svg width="20" height="21" viewBox="0 0 20 21" fill="none" xmlns="http://www.w3.org/2000/svg">
<path d="M16.6667 9.66658C16.4629 8.2001 15.7826 6.8413 14.7305 5.7995C13.6785 4.75769 12.3131 4.09068 10.8447 3.90121C9.37633 3.71174 7.88636 4.01032 6.60434 4.75096C5.32233 5.49159 4.31938 6.6332 3.75001 7.99992M3.33334 4.66658V7.99992H6.66668" stroke="#6A7181" stroke-linecap="round" stroke-linejoin="round"/>
<path d="M3.33334 11.3333C3.53714 12.7997 4.21745 14.1585 5.26948 15.2003C6.3215 16.2421 7.68688 16.9092 9.15528 17.0986C10.6237 17.2881 12.1137 16.9895 13.3957 16.2489C14.6777 15.5082 15.6806 14.3666 16.25 12.9999M16.6667 16.3333V12.9999H13.3333" stroke="#6A7181" stroke-linecap="round" stroke-linejoin="round"/>
</svg>
