<svg width="28" height="22" viewBox="0 0 28 22" fill="none" xmlns="http://www.w3.org/2000/svg">
<g clip-path="url(#clip0_8448_109745)">
<path d="M10.1667 9L14.5 10.375V13.8125H12.3333V19.3125C12.3333 19.4948 12.2572 19.6697 12.1218 19.7986C11.9864 19.9276 11.8027 20 11.6111 20H4.38889C4.19734 20 4.01364 19.9276 3.8782 19.7986C3.74276 19.6697 3.66667 19.4948 3.66667 19.3125V13.8125H1.5V10.375L5.83333 9C5.83333 9.54701 6.06161 10.0716 6.46793 10.4584C6.87426 10.8452 7.42536 11.0625 8 11.0625C8.57464 11.0625 9.12574 10.8452 9.53206 10.4584C9.93839 10.0716 10.1667 9.54701 10.1667 9Z" stroke="#452C8E" stroke-width="1.6" stroke-linecap="round" stroke-linejoin="round"/>
</g>
<path d="M16.55 15H22.25C22.4489 15 22.6397 14.921 22.7803 14.7803C22.921 14.6397 23 14.4489 23 14.25V8.25H25.25V4.5L20.75 3C20.75 3.59674 20.5129 4.16903 20.091 4.59099C19.669 5.01295 19.0967 5.25 18.5 5.25C17.9033 5.25 17.331 5.01295 16.909 4.59099C16.4871 4.16903 16.25 3.59674 16.25 3L11.75 4.5C11.75 4.5 11.75 5.68848 11.75 6.45" stroke="#452C8E" stroke-width="1.6" stroke-linecap="round" stroke-linejoin="round"/>
<defs>
<clipPath id="clip0_8448_109745">
<rect width="16" height="16" fill="white" transform="translate(0.5 6)"/>
</clipPath>
</defs>
</svg>
