<svg width="20" height="20" viewBox="0 0 20 20" fill="none" xmlns="http://www.w3.org/2000/svg">
<path d="M10 1.6665C5.40001 1.6665 1.66667 5.39984 1.66667 9.99984C1.66667 14.5998 5.40001 18.3332 10 18.3332C14.6 18.3332 18.3333 14.5998 18.3333 9.99984C18.3333 5.39984 14.6 1.6665 10 1.6665ZM10 16.6665C6.32501 16.6665 3.33334 13.6748 3.33334 9.99984C3.33334 6.32484 6.32501 3.33317 10 3.33317C13.675 3.33317 16.6667 6.32484 16.6667 9.99984C16.6667 13.6748 13.675 16.6665 10 16.6665ZM10.7417 9.24984C9.25834 8.75817 8.54167 8.44984 8.54167 7.6665C8.54167 6.8165 9.46667 6.50817 10.05 6.50817C11.1417 6.50817 11.5417 7.33317 11.6333 7.62484L12.95 7.0665C12.825 6.69984 12.2667 5.47484 10.7333 5.20817V4.1665H9.27501V5.2165C7.10834 5.68317 7.09167 7.5915 7.09167 7.68317C7.09167 9.57484 8.96667 10.1082 9.88334 10.4415C11.2 10.9082 11.7833 11.3332 11.7833 12.1332C11.7833 13.0748 10.9083 13.4748 10.1333 13.4748C8.61667 13.4748 8.18334 11.9165 8.13334 11.7332L6.75001 12.2915C7.27501 14.1165 8.65001 14.6082 9.26667 14.7582V15.8332H10.725V14.7998C11.1583 14.7248 13.2417 14.3082 13.2417 12.1165C13.25 10.9582 12.7417 9.9415 10.7417 9.24984Z" fill="#452C8E"/>
</svg>
