<svg xmlns="http://www.w3.org/2000/svg" width="18.444" height="16.699" viewBox="0 0 18.444 16.699"><defs><style>.a{fill:#452d8f;stroke:#452d8f;stroke-width:0.5px;}</style></defs><g transform="translate(0.286 -18.837)"><g transform="translate(0 19.089)"><path class="a" d="M17.775,23.425l-.013-.013-3.689-3.279a.35.35,0,0,0-.116-.07l-2.669-.954a.351.351,0,0,0-.47.312,1.9,1.9,0,0,1-3.8,0,.351.351,0,0,0-.466-.312l-2.665.964a.35.35,0,0,0-.116.07L.109,23.412a.351.351,0,0,0-.013.5l.013.013L3.027,26.87v8.065a.351.351,0,0,0,.351.351H14.494a.351.351,0,0,0,.351-.351V26.87l2.918-2.949A.351.351,0,0,0,17.775,23.425Zm-2.941,2.445V24.243a.351.351,0,0,0-.7,0V34.567H3.714V24.243a.351.351,0,0,0-.7,0v1.631L.856,23.689,4.195,20.7l2.2-.793a2.584,2.584,0,0,0,5.074,0l2.2.793,3.328,2.988Z" transform="translate(0 -19.089)"/></g></g></svg>