<svg xmlns="http://www.w3.org/2000/svg" width="16.3" height="20.3" viewBox="0 0 16.3 20.3"><defs><style>.a{fill:#452d8f;stroke:#452d8f;stroke-width:0.3px;}</style></defs><path class="a" d="M20,6.529V19.5A2.5,2.5,0,0,1,17.5,22H6.5A2.5,2.5,0,0,1,4,19.5V4.5A2.5,2.5,0,0,1,6.5,2h8.972a.489.489,0,0,1,.382.146l4,4A.489.489,0,0,1,20,6.529ZM15,3H6.5A1.5,1.5,0,0,0,5,4.5v15A1.5,1.5,0,0,0,6.5,21h11A1.5,1.5,0,0,0,19,19.5V7H15.5a.5.5,0,0,1-.5-.5Zm1,.707V6h2.293ZM8.5,11a.5.5,0,1,1,0-1h7a.5.5,0,1,1,0,1Zm0,3a.5.5,0,0,1,0-1h7a.5.5,0,0,1,0,1Zm0,3a.5.5,0,0,1,0-1h5a.5.5,0,1,1,0,1Z" transform="translate(-3.85 -1.85)"/></svg>