<svg xmlns="http://www.w3.org/2000/svg" width="18.441" height="20.402" viewBox="0 0 18.441 20.402">
  <path id="drafting-compass" d="M7.06,18.125a13.924,13.924,0,0,1-3.868-2.231l-.008-.006a.5.5,0,0,1-.127-.62l2-3.991a.5.5,0,0,1,.731-.188,10.948,10.948,0,0,0,3.065,1.471l1.6-4.989a3,3,0,1,1,3.1,0l1.6,4.989a10.948,10.948,0,0,0,3.065-1.471.5.5,0,0,1,.731.188l2,3.991a.5.5,0,0,1-.127.62l-.008.006a13.923,13.923,0,0,1-3.868,2.231l1.036,3.223a.5.5,0,1,1-.952.306l-1.031-3.208a13.98,13.98,0,0,1-7.986,0L6.976,21.653a.5.5,0,0,1-.952-.306ZM9.821,12.8a10.98,10.98,0,0,0,4.359,0L12.615,7.937a3.029,3.029,0,0,1-1.23,0ZM4.129,15.36a12.948,12.948,0,0,0,15.742,0L18.3,12.226a11.961,11.961,0,0,1-12.608,0ZM12,7a2,2,0,1,0-2-2A2,2,0,0,0,12,7Z" transform="translate(-2.78 -1.8)" fill="#452d8f" stroke="#452d8f" stroke-width="0.4"/>
</svg>
