<svg width="80" height="80" viewBox="0 0 80 80" fill="none" xmlns="http://www.w3.org/2000/svg">
<path d="M43.3332 6.66669H19.9999C18.2318 6.66669 16.5361 7.36907 15.2859 8.61931C14.0356 9.86955 13.3333 11.5652 13.3333 13.3334V66.6667C13.3333 68.4348 14.0356 70.1305 15.2859 71.3807C16.5361 72.631 18.2318 73.3334 19.9999 73.3334H59.9999C61.768 73.3334 63.4637 72.631 64.714 71.3807C65.9642 70.1305 66.6666 68.4348 66.6666 66.6667V30L43.3332 6.66669Z" stroke="#31A8FF" stroke-width="2" stroke-linecap="round" stroke-linejoin="round"/>
<path d="M43.3335 6.66669V30H66.6668" stroke="#31A8FF" stroke-width="2" stroke-linecap="round" stroke-linejoin="round"/>
<path d="M40.8125 46.0391C40.8125 47.5299 40.3242 48.6725 39.3477 49.4668C38.3711 50.2611 36.9811 50.6582 35.1777 50.6582H33.6934V56H31.3594V41.7227H35.4707C37.2546 41.7227 38.5892 42.0872 39.4746 42.8164C40.3665 43.5456 40.8125 44.6198 40.8125 46.0391ZM33.6934 48.6953H34.9336C36.1315 48.6953 37.0104 48.487 37.5703 48.0703C38.1302 47.6536 38.4102 47.0026 38.4102 46.1172C38.4102 45.2969 38.1595 44.6849 37.6582 44.2812C37.1569 43.8776 36.3757 43.6758 35.3145 43.6758H33.6934V48.6953ZM50.6758 52.9238C50.6758 53.9785 50.2917 54.7891 49.5234 55.3555C48.7552 55.9154 47.6549 56.1953 46.2227 56.1953C44.7839 56.1953 43.6283 55.9772 42.7559 55.541V53.5586C44.0254 54.1445 45.207 54.4375 46.3008 54.4375C47.7135 54.4375 48.4199 54.0111 48.4199 53.1582C48.4199 52.8848 48.3418 52.6569 48.1855 52.4746C48.0293 52.2923 47.7721 52.1035 47.4141 51.9082C47.056 51.7129 46.5579 51.4915 45.9199 51.2441C44.6764 50.7624 43.8333 50.2806 43.3906 49.7988C42.9544 49.3171 42.7363 48.6921 42.7363 47.9238C42.7363 46.9993 43.1074 46.2832 43.8496 45.7754C44.5983 45.2611 45.6139 45.0039 46.8965 45.0039C48.166 45.0039 49.3672 45.2611 50.5 45.7754L49.7578 47.5039C48.5924 47.0221 47.6126 46.7812 46.8184 46.7812C45.6074 46.7812 45.002 47.1263 45.002 47.8164C45.002 48.1549 45.1582 48.4414 45.4707 48.6758C45.7897 48.9102 46.4798 49.2324 47.541 49.6426C48.4329 49.9876 49.0807 50.3034 49.4844 50.5898C49.888 50.8763 50.1875 51.2083 50.3828 51.5859C50.5781 51.957 50.6758 52.403 50.6758 52.9238Z" fill="#31A8FF"/>
</svg>
