<svg width="80" height="80" viewBox="0 0 80 80" fill="none" xmlns="http://www.w3.org/2000/svg">
<path d="M43.3332 6.66669H19.9999C18.2318 6.66669 16.5361 7.36907 15.2859 8.61931C14.0356 9.86955 13.3333 11.5652 13.3333 13.3334V66.6667C13.3333 68.4348 14.0356 70.1305 15.2859 71.3807C16.5361 72.631 18.2318 73.3334 19.9999 73.3334H59.9999C61.768 73.3334 63.4637 72.631 64.714 71.3807C65.9642 70.1305 66.6666 68.4348 66.6666 66.6667V30L43.3332 6.66669Z" stroke="#F3C134" stroke-width="2" stroke-linecap="round" stroke-linejoin="round"/>
<path d="M43.3333 6.66669V30H66.6666" stroke="#F3C134" stroke-width="2" stroke-linecap="round" stroke-linejoin="round"/>
<path d="M33.2246 56H25.1484V41.7227H33.2246V43.6953H27.4824V47.582H32.8633V49.5352H27.4824V54.0176H33.2246V56ZM45.7734 46.0391C45.7734 47.5299 45.2852 48.6725 44.3086 49.4668C43.332 50.2611 41.9421 50.6582 40.1387 50.6582H38.6543V56H36.3203V41.7227H40.4316C42.2155 41.7227 43.5501 42.0872 44.4355 42.8164C45.3275 43.5456 45.7734 44.6198 45.7734 46.0391ZM38.6543 48.6953H39.8945C41.0924 48.6953 41.9714 48.487 42.5312 48.0703C43.0911 47.6536 43.3711 47.0026 43.3711 46.1172C43.3711 45.2969 43.1204 44.6849 42.6191 44.2812C42.1178 43.8776 41.3366 43.6758 40.2754 43.6758H38.6543V48.6953ZM56.8574 52.123C56.8574 53.3926 56.3984 54.3887 55.4805 55.1113C54.5625 55.834 53.2962 56.1953 51.6816 56.1953C50.0671 56.1953 48.7454 55.9447 47.7168 55.4434V53.2363C48.3678 53.5423 49.0579 53.7832 49.7871 53.959C50.5228 54.1348 51.2064 54.2227 51.8379 54.2227C52.7624 54.2227 53.4427 54.0469 53.8789 53.6953C54.3216 53.3438 54.543 52.8717 54.543 52.2793C54.543 51.7454 54.3411 51.293 53.9375 50.9219C53.5339 50.5508 52.7005 50.1113 51.4375 49.6035C50.1354 49.0762 49.2174 48.474 48.6836 47.7969C48.1497 47.1198 47.8828 46.306 47.8828 45.3555C47.8828 44.1641 48.306 43.2266 49.1523 42.543C49.9987 41.8594 51.1348 41.5176 52.5605 41.5176C53.9277 41.5176 55.2884 41.8171 56.6426 42.416L55.9004 44.3203C54.6309 43.7865 53.498 43.5195 52.502 43.5195C51.7467 43.5195 51.1738 43.6855 50.7832 44.0176C50.3926 44.3431 50.1973 44.776 50.1973 45.3164C50.1973 45.6875 50.2754 46.0065 50.4316 46.2734C50.5879 46.5339 50.8451 46.7812 51.2031 47.0156C51.5612 47.25 52.2057 47.5592 53.1367 47.9434C54.1849 48.3796 54.9531 48.7865 55.4414 49.1641C55.9297 49.5417 56.2878 49.9681 56.5156 50.4434C56.7435 50.9186 56.8574 51.4785 56.8574 52.123Z" fill="#F3C134"/>
</svg>
