<svg width="80" height="80" viewBox="0 0 80 80" fill="none" xmlns="http://www.w3.org/2000/svg">
<path d="M43.3332 6.66669H19.9999C18.2318 6.66669 16.5361 7.36907 15.2859 8.61931C14.0356 9.86955 13.3333 11.5652 13.3333 13.3334V66.6667C13.3333 68.4348 14.0356 70.1305 15.2859 71.3807C16.5361 72.631 18.2318 73.3334 19.9999 73.3334H59.9999C61.768 73.3334 63.4637 72.631 64.714 71.3807C65.9642 70.1305 66.6666 68.4348 66.6666 66.6667V30L43.3332 6.66669Z" stroke="#EF4836" stroke-width="2" stroke-linecap="round" stroke-linejoin="round"/>
<path d="M43.3333 6.66669V30H66.6666" stroke="#EF4836" stroke-width="2" stroke-linecap="round" stroke-linejoin="round"/>
<path d="M31.1191 56.1953C29.752 56.1953 28.6908 55.7038 27.9355 54.7207H27.7988C27.89 55.6322 27.9355 56.1855 27.9355 56.3809V60.8047H25.6406V45.1992H27.4961C27.5482 45.401 27.6556 45.8828 27.8184 46.6445H27.9355C28.6517 45.5508 29.7259 45.0039 31.1582 45.0039C32.5059 45.0039 33.554 45.4922 34.3027 46.4688C35.0579 47.4453 35.4355 48.8158 35.4355 50.5801C35.4355 52.3444 35.0514 53.7214 34.2832 54.7109C33.5215 55.7005 32.4668 56.1953 31.1191 56.1953ZM30.5625 46.8789C29.651 46.8789 28.9837 47.1458 28.5605 47.6797C28.1439 48.2135 27.9355 49.0664 27.9355 50.2383V50.5801C27.9355 51.8952 28.1439 52.849 28.5605 53.4414C28.9772 54.0273 29.6576 54.3203 30.6016 54.3203C31.3958 54.3203 32.0078 53.9948 32.4375 53.3438C32.8672 52.6927 33.082 51.765 33.082 50.5605C33.082 49.3496 32.8672 48.4349 32.4375 47.8164C32.0143 47.1914 31.3893 46.8789 30.5625 46.8789ZM41.7441 56.1953C40.3965 56.1953 39.3451 55.707 38.5898 54.7305C37.8346 53.7539 37.457 52.3835 37.457 50.6191C37.457 48.8483 37.8379 47.4714 38.5996 46.4883C39.3678 45.4987 40.429 45.0039 41.7832 45.0039C43.2025 45.0039 44.2832 45.528 45.0254 46.5762H45.1426C45.0319 45.8014 44.9766 45.1895 44.9766 44.7402V40.8047H47.2812V56H45.4844L45.084 54.584H44.9766C44.2409 55.6582 43.1634 56.1953 41.7441 56.1953ZM42.3594 54.3398C43.3034 54.3398 43.9902 54.0762 44.4199 53.5488C44.8496 53.015 45.071 52.1523 45.084 50.9609V50.6387C45.084 49.278 44.8626 48.3112 44.4199 47.7383C43.9772 47.1654 43.2839 46.8789 42.3398 46.8789C41.5326 46.8789 40.9108 47.2077 40.4746 47.8652C40.0384 48.5163 39.8203 49.4473 39.8203 50.6582C39.8203 51.8561 40.0319 52.7708 40.4551 53.4023C40.8783 54.0273 41.513 54.3398 42.3594 54.3398ZM55.9824 46.9375H53.3457V56H51.041V46.9375H49.2637V45.8633L51.041 45.1602V44.457C51.041 43.181 51.3405 42.237 51.9395 41.625C52.5384 41.0065 53.4531 40.6973 54.6836 40.6973C55.4909 40.6973 56.2852 40.8307 57.0664 41.0977L56.4609 42.8359C55.8945 42.6536 55.3542 42.5625 54.8398 42.5625C54.319 42.5625 53.9382 42.7253 53.6973 43.0508C53.4629 43.3698 53.3457 43.8516 53.3457 44.4961V45.1992H55.9824V46.9375Z" fill="#EF4836"/>
</svg>
