<svg xmlns="http://www.w3.org/2000/svg" width="19.668" height="14.409" viewBox="0 0 19.668 14.409"><defs><style>.a,.b{fill:#452d8f;}.a{stroke:#452d8f;stroke-width:0.3px;}</style></defs><g transform="translate(-305.85 -272.85)"><path class="a" d="M18.928,0H.44A.44.44,0,0,0,0,.44V12.325a1.762,1.762,0,0,0,1.761,1.761H6.873c18.042.2-2.824-1.034,5.623,0h5.112a1.762,1.762,0,0,0,1.761-1.761V.44A.44.44,0,0,0,18.928,0Zm-.44,12.325a.882.882,0,0,1-.88.88H1.761a.882.882,0,0,1-.88-.88V.88H18.488Z" transform="translate(306 273)"/><path class="b" d="M64.44,175.068h2.641a.44.44,0,0,0,.44-.44v-3.521a.44.44,0,0,0-.44-.44H64.44a.44.44,0,0,0-.44.44v3.521A.44.44,0,0,0,64.44,175.068Zm.44-3.521h1.761v2.641H64.88Z" transform="translate(245.641 109.377)"/><path class="b" d="M192.44,113.709h2.641a.44.44,0,0,0,.44-.44v-6.163a.44.44,0,0,0-.44-.44H192.44a.44.44,0,0,0-.44.44v6.163A.44.44,0,0,0,192.44,113.709Zm.44-6.163h1.761v5.282H192.88Z" transform="translate(121.923 170.736)"/><path class="b" d="M320.44,72.8h2.641a.44.44,0,0,0,.44-.44V64.439a.44.44,0,0,0-.44-.44H320.44a.44.44,0,0,0-.44.44v7.923A.44.44,0,0,0,320.44,72.8Zm.44-7.923h1.761v7.043H320.88Z" transform="translate(-1.794 211.642)"/></g></svg>