<svg xmlns="http://www.w3.org/2000/svg" width="15" height="18" viewBox="0 0 15 18"><defs><style>.a,.e{fill:none;}.a,.c{stroke:#452d8f;}.a{stroke-width:1.2px;}.b,.c{fill:#452d8f;}.d{stroke:none;}</style></defs><g transform="translate(3242 -1900)"><g class="a" transform="translate(-3242 1900)"><rect class="d" width="15" height="18" rx="2"/><rect class="e" x="0.6" y="0.6" width="13.8" height="16.8" rx="1.4"/></g><path class="b" d="M187.431,151.767a.3.3,0,0,0-.11,0,.727.727,0,0,1-.643-.721.32.32,0,1,0-.64,0,1.369,1.369,0,0,0,1.007,1.318v.32a.32.32,0,0,0,.64,0v-.3a1.366,1.366,0,0,0-.28-2.7.727.727,0,1,1,.727-.727.32.32,0,0,0,.64,0,1.369,1.369,0,0,0-1.087-1.338v-.291a.32.32,0,1,0-.64,0v.311a1.366,1.366,0,0,0,.36,2.684.726.726,0,0,1,.027,1.452Zm0,0" transform="translate(-3422.038 1756)"/><g class="c" transform="translate(-3238 1911)"><rect class="d" width="7" height="1" rx="0.5"/><rect class="e" x="0.5" y="0.5" width="6"/></g><g class="c" transform="translate(-3239 1913.2)"><rect class="d" width="9" height="1" rx="0.5"/><rect class="e" x="0.5" y="0.5" width="8"/></g></g></svg>