<svg xmlns="http://www.w3.org/2000/svg" width="16.395" height="14.94" viewBox="0 0 16.395 14.94">
  <g id="hashtag" transform="translate(0.1 -0.05)">
    <path id="Path_23871" data-name="Path 23871" d="M260.4,14.89a.721.721,0,0,1-.191-.026.736.736,0,0,1-.52-.9L263.241.713a.736.736,0,0,1,1.422.381l-3.554,13.25A.735.735,0,0,1,260.4,14.89Zm0,0" transform="translate(-250.702)" fill="#21242b" stroke="#21242b" stroke-width="0.2"/>
    <path id="Path_23872" data-name="Path 23872" d="M64.708,14.89a.722.722,0,0,1-.191-.026.736.736,0,0,1-.52-.9L67.55.713a.736.736,0,0,1,1.422.381l-3.554,13.25A.735.735,0,0,1,64.708,14.89Zm0,0" transform="translate(-61.764)" fill="#21242b" stroke="#21242b" stroke-width="0.2"/>
    <path id="Path_23873" data-name="Path 23873" d="M13.986,279H.736a.736.736,0,0,1,0-1.472h13.25a.736.736,0,1,1,0,1.472Zm0,0" transform="translate(0 -267.79)" fill="#21242b" stroke="#21242b" stroke-width="0.2"/>
    <path id="Path_23874" data-name="Path 23874" d="M56.654,108.331H43.4a.736.736,0,0,1,0-1.472h13.25a.736.736,0,0,1,0,1.472Zm0,0" transform="translate(-41.196 -103.011)" fill="#21242b" stroke="#21242b" stroke-width="0.2"/>
  </g>
</svg>
