<svg xmlns="http://www.w3.org/2000/svg" width="51.691" height="42.192" viewBox="0 0 51.691 42.192">
  <g id="chat-speech-bubbles" transform="translate(0 -1.478)">
    <g id="Group_5334" data-name="Group 5334" transform="translate(0 1.478)">
      <path id="Path_23807" data-name="Path 23807" d="M20.886,3.478C9.35,3.478,0,10.669,0,19.544c0,4.351,2.252,8.306,5.909,11.2-.212,2.95-.922,6.558-2.979,8.5,4.094,0,8.277-2.564,10.922-4.569a26.545,26.545,0,0,0,7.034.935c11.535,0,20.886-7.188,20.886-16.066S32.421,3.478,20.886,3.478Z" transform="translate(0 2.948)" fill="#452d8f"/>
      <path id="Path_23808" data-name="Path 23808" d="M36.816,25.535a13.264,13.264,0,0,0,2.763-7.991c0-8.875-9.35-16.066-20.886-16.066A24.869,24.869,0,0,0,5.346,5.186a28.674,28.674,0,0,1,5.315-.495c12.422,0,22.492,7.914,22.492,17.673a15.182,15.182,0,0,1-4.216,10.3c2.638,2.005,6.828,4.576,10.922,4.576C36.948,34.481,36.739,28.356,36.816,25.535Z" transform="translate(11.832 -1.478)" fill="#47357d"/>
    </g>
  </g>
</svg>
