<svg xmlns="http://www.w3.org/2000/svg" width="71.603" height="52.1" viewBox="0 0 71.603 52.1">
  <path id="Path_27873" data-name="Path 27873" d="M55.948,118.75H40.586V103.227h5.077a1.588,1.588,0,0,0,1.288-2.516L37.074,87.045a1.574,1.574,0,0,0-2.56,0L24.638,100.71a1.584,1.584,0,0,0,1.288,2.516H31V118.75H13.8C6.116,118.326,0,111.142,0,103.359A14.575,14.575,0,0,1,7.228,90.776a9.772,9.772,0,0,1-.6-3.409,9.909,9.909,0,0,1,9.92-9.92,9.75,9.75,0,0,1,3.394.6A19.859,19.859,0,0,1,57.674,84.6C65.59,85.963,71.6,93.293,71.6,101.588A17.212,17.212,0,0,1,55.948,118.75Z" transform="translate(0 -66.65)" fill="#9a9fac"/>
</svg>
