<svg id="calendar_14_" data-name="calendar (14)" xmlns="http://www.w3.org/2000/svg" width="16.692" height="16.692" viewBox="0 0 16.692 16.692">
  <g id="Group_5429" data-name="Group 5429">
    <g id="Group_5428" data-name="Group 5428">
      <circle id="Ellipse_140" data-name="Ellipse 140" cx="0.595" cy="0.595" r="0.595" transform="translate(11.917 5.965)" fill="#21242b"/>
      <path id="Path_23852" data-name="Path 23852" d="M14.084,1.3h-.848V.652a.652.652,0,0,0-1.3,0V1.3H8.965V.652a.652.652,0,1,0-1.3,0V1.3H4.727V.652a.652.652,0,1,0-1.3,0V1.3H2.608A2.611,2.611,0,0,0,0,3.912V14.084a2.611,2.611,0,0,0,2.608,2.608H7.6a.652.652,0,0,0,0-1.3H2.608a1.306,1.306,0,0,1-1.3-1.3V3.912a1.306,1.306,0,0,1,1.3-1.3h.815V3.26a.652.652,0,1,0,1.3,0V2.608H7.661V3.26a.652.652,0,1,0,1.3,0V2.608h2.967V3.26a.652.652,0,0,0,1.3,0V2.608h.848a1.306,1.306,0,0,1,1.3,1.3V7.629a.652.652,0,0,0,1.3,0V3.912A2.611,2.611,0,0,0,14.084,1.3Z" fill="#21242b"/>
      <path id="Path_23853" data-name="Path 23853" d="M273.945,270a3.945,3.945,0,1,0,3.945,3.945A3.949,3.949,0,0,0,273.945,270Zm0,6.585a2.641,2.641,0,1,1,2.641-2.641A2.644,2.644,0,0,1,273.945,276.585Z" transform="translate(-261.198 -261.198)" fill="#21242b"/>
      <path id="Path_23854" data-name="Path 23854" d="M372.6,331.337H372.3v-.685a.652.652,0,0,0-1.3,0v1.337a.652.652,0,0,0,.652.652h.945a.652.652,0,0,0,0-1.3Z" transform="translate(-358.905 -319.242)" fill="#21242b"/>
      <circle id="Ellipse_141" data-name="Ellipse 141" cx="0.595" cy="0.595" r="0.595" transform="translate(9.536 5.965)" fill="#21242b"/>
      <circle id="Ellipse_142" data-name="Ellipse 142" cx="0.595" cy="0.595" r="0.595" transform="translate(5.965 9.536)" fill="#21242b"/>
      <circle id="Ellipse_143" data-name="Ellipse 143" cx="0.595" cy="0.595" r="0.595" transform="translate(3.585 5.965)" fill="#21242b"/>
      <circle id="Ellipse_144" data-name="Ellipse 144" cx="0.595" cy="0.595" r="0.595" transform="translate(3.585 9.536)" fill="#21242b"/>
      <circle id="Ellipse_145" data-name="Ellipse 145" cx="0.595" cy="0.595" r="0.595" transform="translate(3.585 11.917)" fill="#21242b"/>
      <circle id="Ellipse_146" data-name="Ellipse 146" cx="0.595" cy="0.595" r="0.595" transform="translate(5.965 11.917)" fill="#21242b"/>
      <circle id="Ellipse_147" data-name="Ellipse 147" cx="0.595" cy="0.595" r="0.595" transform="translate(5.965 5.965)" fill="#21242b"/>
    </g>
  </g>
</svg>
