<svg width="155" height="38" viewBox="0 0 155 38" fill="none" xmlns="http://www.w3.org/2000/svg">
<path d="M27.5971 2.50421L27.7015 27.3459L0.254875 1.4585H0V36.8454H5.07293L4.96852 12.3837L32.4612 37.9854H32.6178V2.50421H27.5971Z" fill="#282828"/>
<path d="M43.001 2.50464V36.8459H48.0217V2.50464H43.001Z" fill="#282828"/>
<path d="M55.6465 2.50464V6.92459H65.4331V36.8428H70.4599V6.92459H80.5014V2.50464H55.6465Z" fill="#282828"/>
<path d="M111.668 6.92459V2.50464H88.1455V36.8459H111.668V32.3773H93.1662V21.7864H108.873V17.3726H93.1662V6.92459H111.668Z" fill="#282828"/>
<path d="M147.787 36.8456H141.373L132.277 24.0113C133.057 22.7832 133.858 21.6098 134.681 20.4699C134.93 20.1203 135.446 19.4242 135.446 19.415L147.787 36.8456Z" fill="#282828"/>
<path d="M132.196 14.8853C131.342 15.8034 130.488 16.7701 129.647 17.7762C129.527 17.9191 129.398 18.062 129.278 18.2109C129.085 18.4481 128.882 18.6943 128.686 18.9405L128.68 18.9496L128.065 18.0772L126.155 15.3748L117.035 2.50098H123.398L132.196 14.8853Z" fill="#282828"/>
<path d="M154.494 0V1.85735C152.105 3.08545 149.845 4.57194 147.674 6.15874C147.148 6.53569 146.639 6.92783 146.135 7.34125C144.372 8.73958 142.699 10.2777 141.096 11.8797C136.969 15.9927 133.45 20.7318 130.431 25.7688C128.923 28.2858 127.557 30.894 126.319 33.56C125.822 34.6483 125.337 35.7396 124.882 36.8491H118.222C118.529 36.1803 118.854 35.5268 119.18 34.8854C119.889 33.4597 120.641 32.0826 121.421 30.7208C122.988 28.0062 124.686 25.3797 126.507 22.8688C127.554 21.437 128.641 20.0326 129.771 18.6677C130.907 17.2907 132.089 15.9532 133.315 14.6703C135.117 12.7735 137.012 10.983 139.011 9.32931C141.176 7.52668 143.43 5.85172 145.807 4.38651C145.997 4.26491 146.197 4.14332 146.393 4.02781C147.557 3.33168 148.736 2.67203 149.931 2.05494C151.398 1.29802 152.894 0.61709 154.426 0.0303981L154.494 0Z" fill="#282828"/>
<path d="M137.595 22.4983L137.297 22.0636L136.106 20.3674L135.445 19.4189" fill="#282828"/>
<path d="M126.156 15.3774L128.066 18.0768L128.68 18.9493" fill="#282828"/>
</svg>
