<svg xmlns="http://www.w3.org/2000/svg" width="16.743" height="16.663" viewBox="0 0 16.743 16.663"><defs><style>.a{fill:#21242b;stroke:#21242b;stroke-width:0.5px;}</style></defs><g transform="translate(0.25 0.114)"><path class="a" d="M14.877,47.675a.4.4,0,0,0-.4.4v3.564a1.206,1.206,0,0,1-1.2,1.2H2.007a1.206,1.206,0,0,1-1.2-1.2V41.179a1.206,1.206,0,0,1,1.2-1.2H5.572a.4.4,0,1,0,0-.8H2.007A2.01,2.01,0,0,0,0,41.179V51.641a2.01,2.01,0,0,0,2.007,2.007H13.272a2.01,2.01,0,0,0,2.007-2.007V48.076a.4.4,0,0,0-.4-.4Zm0,0" transform="translate(0 -37.349)"/><path class="a" d="M118.967.79a1.807,1.807,0,0,0-2.555,0L109.25,7.952a.4.4,0,0,0-.1.177l-.942,3.4a.4.4,0,0,0,.494.494l3.4-.942a.4.4,0,0,0,.177-.1l7.162-7.162a1.809,1.809,0,0,0,0-2.555Zm-8.842,7.423,5.862-5.862,1.89,1.89L112.015,10.1Zm-.378.758,1.51,1.51-2.089.579Zm9.123-5.723-.426.426-1.891-1.891.426-.426a1,1,0,0,1,1.419,0l.471.471A1,1,0,0,1,118.87,3.248Zm0,0" transform="translate(-103.847)"/></g></svg>